<svg width="28" height="25" viewBox="0 0 28 25" fill="none" xmlns="http://www.w3.org/2000/svg">
<path d="M1 5.47937L3.08 5.83519L4.04301 17.175C4.12001 18.1012 4.90301 18.8118 5.84301 18.8089H16.752C17.649 18.8108 18.41 18.1585 18.537 17.2808L19.486 10.7989C19.592 10.0744 19.083 9.40231 18.351 9.29754C18.287 9.28864 3.414 9.2837 3.414 9.2837" stroke="#363853" stroke-width="1.5" stroke-linecap="round" stroke-linejoin="round"/>
<path d="M12.375 12.937H15.1479" stroke="#363853" stroke-width="1.5" stroke-linecap="round" stroke-linejoin="round"/>
<path fill-rule="evenodd" clip-rule="evenodd" d="M5.4043 22.2352C5.70527 22.2352 5.94824 22.4765 5.94824 22.7732C5.94824 23.0708 5.70527 23.3121 5.4043 23.3121C5.10333 23.3121 4.86035 23.0708 4.86035 22.7732C4.86035 22.4765 5.10333 22.2352 5.4043 22.2352Z" fill="#363853" stroke="#363853" stroke-width="1.5" stroke-linecap="round" stroke-linejoin="round"/>
<path fill-rule="evenodd" clip-rule="evenodd" d="M16.6846 22.2352C16.9856 22.2352 17.2296 22.4765 17.2296 22.7732C17.2296 23.0708 16.9856 23.3121 16.6846 23.3121C16.3836 23.3121 16.1406 23.0708 16.1406 22.7732C16.1406 22.4765 16.3836 22.2352 16.6846 22.2352Z" fill="#363853" stroke="#363853" stroke-width="1.5" stroke-linecap="round" stroke-linejoin="round"/>
<circle cx="21" cy="7.30334" r="7" fill="#FF6838"/>
<path d="M22.01 11.3033C21.9433 11.3033 21.8867 11.2833 21.84 11.2433C21.8 11.1967 21.78 11.14 21.78 11.0733V9.63334H18.54C18.4733 9.63334 18.4167 9.61334 18.37 9.57334C18.33 9.52668 18.31 9.47001 18.31 9.40334V9.00334C18.31 8.97668 18.3167 8.93668 18.33 8.88334C18.35 8.82334 18.38 8.76334 18.42 8.70334L21.42 4.47334C21.5 4.36001 21.6233 4.30334 21.79 4.30334H22.51C22.5767 4.30334 22.63 4.32668 22.67 4.37334C22.7167 4.41334 22.74 4.46668 22.74 4.53334V8.76334H23.64C23.7133 8.76334 23.77 8.78668 23.81 8.83334C23.8567 8.87334 23.88 8.92668 23.88 8.99334V9.40334C23.88 9.47001 23.8567 9.52668 23.81 9.57334C23.77 9.61334 23.7167 9.63334 23.65 9.63334H22.74V11.0733C22.74 11.14 22.7167 11.1967 22.67 11.2433C22.63 11.2833 22.5767 11.3033 22.51 11.3033H22.01ZM19.38 8.78334H21.79V5.35334L19.38 8.78334Z" fill="white"/>
</svg>
