<svg width="136" height="25" viewBox="0 0 136 25" fill="none" xmlns="http://www.w3.org/2000/svg">
<path d="M1.079 24C0.859 24 0.672 23.923 0.518 23.769C0.364 23.615 0.287 23.417 0.287 23.175V20.865C0.287 20.535 0.353 20.271 0.485 20.073C0.617 19.875 0.716 19.732 0.782 19.644L12.266 4.794H1.409C1.167 4.794 0.969 4.717 0.815 4.563C0.683 4.409 0.617 4.222 0.617 4.002V1.725C0.617 1.483 0.683 1.285 0.815 1.131C0.969 0.976999 1.167 0.899998 1.409 0.899998H17.183C17.425 0.899998 17.623 0.976999 17.777 1.131C17.931 1.285 18.008 1.483 18.008 1.725V4.002C18.008 4.266 17.964 4.486 17.876 4.662C17.788 4.838 17.689 5.003 17.579 5.157L6.326 20.073H17.546C17.788 20.073 17.986 20.15 18.14 20.304C18.294 20.458 18.371 20.656 18.371 20.898V23.208C18.371 23.428 18.294 23.615 18.14 23.769C17.986 23.923 17.788 24 17.546 24H1.079ZM32.5326 24.33C30.5746 24.33 28.8916 24.011 27.4836 23.373C26.0756 22.713 24.9756 21.712 24.1836 20.37C23.3916 19.006 22.9626 17.312 22.8966 15.288C22.8746 14.342 22.8636 13.407 22.8636 12.483C22.8636 11.559 22.8746 10.613 22.8966 9.645C22.9626 7.643 23.4026 5.971 24.2166 4.629C25.0306 3.287 26.1416 2.275 27.5496 1.593C28.9796 0.910999 30.6406 0.569999 32.5326 0.569999C34.4246 0.569999 36.0856 0.910999 37.5156 1.593C38.9456 2.275 40.0676 3.287 40.8816 4.629C41.6956 5.971 42.1356 7.643 42.2016 9.645C42.2456 10.613 42.2676 11.559 42.2676 12.483C42.2676 13.407 42.2456 14.342 42.2016 15.288C42.1356 17.312 41.7066 19.006 40.9146 20.37C40.1226 21.712 39.0116 22.713 37.5816 23.373C36.1736 24.011 34.4906 24.33 32.5326 24.33ZM32.5326 20.535C33.9626 20.535 35.1286 20.117 36.0306 19.281C36.9326 18.423 37.4166 17.037 37.4826 15.123C37.5266 14.155 37.5486 13.264 37.5486 12.45C37.5486 11.614 37.5266 10.723 37.4826 9.777C37.4386 8.501 37.1966 7.467 36.7566 6.675C36.3386 5.861 35.7666 5.278 35.0406 4.926C34.3146 4.552 33.4786 4.365 32.5326 4.365C31.6086 4.365 30.7836 4.552 30.0576 4.926C29.3316 5.278 28.7486 5.861 28.3086 6.675C27.8906 7.467 27.6596 8.501 27.6156 9.777C27.5936 10.723 27.5826 11.614 27.5826 12.45C27.5826 13.264 27.5936 14.155 27.6156 15.123C27.6816 17.037 28.1656 18.423 29.0676 19.281C29.9696 20.117 31.1246 20.535 32.5326 20.535ZM57.128 24.33C55.17 24.33 53.487 24.011 52.079 23.373C50.671 22.713 49.571 21.712 48.779 20.37C47.987 19.006 47.558 17.312 47.492 15.288C47.47 14.342 47.459 13.407 47.459 12.483C47.459 11.559 47.47 10.613 47.492 9.645C47.558 7.643 47.998 5.971 48.812 4.629C49.626 3.287 50.737 2.275 52.145 1.593C53.575 0.910999 55.236 0.569999 57.128 0.569999C59.02 0.569999 60.681 0.910999 62.111 1.593C63.541 2.275 64.663 3.287 65.477 4.629C66.291 5.971 66.731 7.643 66.797 9.645C66.841 10.613 66.863 11.559 66.863 12.483C66.863 13.407 66.841 14.342 66.797 15.288C66.731 17.312 66.302 19.006 65.51 20.37C64.718 21.712 63.607 22.713 62.177 23.373C60.769 24.011 59.086 24.33 57.128 24.33ZM57.128 20.535C58.558 20.535 59.724 20.117 60.626 19.281C61.528 18.423 62.012 17.037 62.078 15.123C62.122 14.155 62.144 13.264 62.144 12.45C62.144 11.614 62.122 10.723 62.078 9.777C62.034 8.501 61.792 7.467 61.352 6.675C60.934 5.861 60.362 5.278 59.636 4.926C58.91 4.552 58.074 4.365 57.128 4.365C56.204 4.365 55.379 4.552 54.653 4.926C53.927 5.278 53.344 5.861 52.904 6.675C52.486 7.467 52.255 8.501 52.211 9.777C52.189 10.723 52.178 11.614 52.178 12.45C52.178 13.264 52.189 14.155 52.211 15.123C52.277 17.037 52.761 18.423 53.663 19.281C54.565 20.117 55.72 20.535 57.128 20.535Z" fill="#FF6838"/>
<path d="M73.6383 24C73.4183 24 73.2313 23.923 73.0773 23.769C72.9233 23.615 72.8463 23.428 72.8463 23.208V1.725C72.8463 1.483 72.9233 1.285 73.0773 1.131C73.2313 0.976999 73.4183 0.899998 73.6383 0.899998H82.4823C84.1983 0.899998 85.6943 1.175 86.9703 1.725C88.2463 2.253 89.2363 3.067 89.9403 4.167C90.6443 5.245 90.9963 6.598 90.9963 8.226C90.9963 9.876 90.6443 11.24 89.9403 12.318C89.2363 13.374 88.2463 14.166 86.9703 14.694C85.6943 15.222 84.1983 15.486 82.4823 15.486H77.5653V23.208C77.5653 23.428 77.4883 23.615 77.3343 23.769C77.2023 23.923 77.0153 24 76.7733 24H73.6383ZM77.4993 11.823H82.3173C83.5933 11.823 84.5723 11.526 85.2543 10.932C85.9363 10.316 86.2773 9.414 86.2773 8.226C86.2773 7.126 85.9583 6.246 85.3203 5.586C84.6823 4.904 83.6813 4.563 82.3173 4.563H77.4993V11.823ZM97.0412 24C96.8212 24 96.6342 23.923 96.4802 23.769C96.3262 23.615 96.2492 23.428 96.2492 23.208V1.725C96.2492 1.483 96.3262 1.285 96.4802 1.131C96.6342 0.976999 96.8212 0.899998 97.0412 0.899998H111.561C111.803 0.899998 112.001 0.976999 112.155 1.131C112.309 1.285 112.386 1.483 112.386 1.725V3.903C112.386 4.123 112.309 4.31 112.155 4.464C112.001 4.618 111.803 4.695 111.561 4.695H100.704V10.536H110.835C111.077 10.536 111.275 10.613 111.429 10.767C111.583 10.899 111.66 11.086 111.66 11.328V13.374C111.66 13.616 111.583 13.814 111.429 13.968C111.275 14.1 111.077 14.166 110.835 14.166H100.704V20.205H111.825C112.067 20.205 112.265 20.282 112.419 20.436C112.573 20.59 112.65 20.788 112.65 21.03V23.208C112.65 23.428 112.573 23.615 112.419 23.769C112.265 23.923 112.067 24 111.825 24H97.0412ZM124.302 24C124.082 24 123.895 23.923 123.741 23.769C123.587 23.615 123.51 23.428 123.51 23.208V4.959H117.405C117.185 4.959 116.998 4.882 116.844 4.728C116.69 4.574 116.613 4.387 116.613 4.167V1.725C116.613 1.483 116.69 1.285 116.844 1.131C116.998 0.976999 117.185 0.899998 117.405 0.899998H134.235C134.477 0.899998 134.675 0.976999 134.829 1.131C134.983 1.285 135.06 1.483 135.06 1.725V4.167C135.06 4.387 134.983 4.574 134.829 4.728C134.675 4.882 134.477 4.959 134.235 4.959H128.163V23.208C128.163 23.428 128.086 23.615 127.932 23.769C127.778 23.923 127.58 24 127.338 24H124.302Z" fill="#363853"/>
</svg>
